<svg xmlns="http://www.w3.org/2000/svg" width="360" height="579"><path d="M174.41 5.852c-2.25 2.556-7.889 9.373-12.531 15.148C135.431 53.898 122 79.514 122 97.061c0 7.198 1.494 11.617 5.293 15.65 3.274 3.476 4.707 3.454 4.707-.074 0-4.085 4.844-12.33 8.017-13.644 6.217-2.575 13.05 1.772 17.983 11.438 3.437 6.736 3.506 7.113 3.839 20.981l.339 14.122-3.839 1.342c-11.491 4.017-28.622 18.712-34.952 29.982-3.235 5.76-3.463 5.825-14.387 4.101-17.65-2.786-27.158-10.451-25.263-20.365 1.079-5.642 8.295-5.866 19.872-.617 7.745 3.511 7.391 3.435 7.391 1.604 0-1.83-13.076-12.349-21.774-17.516-12.009-7.134-22.845-9.671-29.911-7.001-5.722 2.162-12.344 10.859-12.293 16.146.04 4.206 3.882 10.863 9.873 17.107l5.933 6.183-9.664.067c-11.578.08-21.163 2.955-33.664 10.097C10.493 191.809 1 198.621 1 199.938c0 1.496 13.269 10.793 22.085 15.475 11.917 6.328 22.059 8.921 32.856 8.4l8.559-.413-5.792 6.05c-7.333 7.659-12.207 17.09-11.4 22.06 1.093 6.733 9.328 13.863 17.412 15.075 5.942.891 15.583-1.777 23.298-6.447 6.86-4.153 21.804-16.511 22.659-18.737 1.078-2.81-.539-2.576-6.943 1.005-8.293 4.638-14.683 5.645-17.559 2.769-2.953-2.953-3.711-8.248-1.763-12.328 3.392-7.107 13.902-11.234 33.253-13.058l12.329-1.162 8.296 4.265 8.296 4.265-.405 9.255c-.46 10.518 1.053 15.107 5.337 16.182 1.365.343 2.482.954 2.482 1.359C154 257.58 136.963 277 133.782 277c-1.292 0-.757 5.017 3.201 30 3.308 20.883 15.454 98.215 25.994 165.5 3.877 24.75 8.135 51.75 9.463 60 1.327 8.25 3.426 21.627 4.663 29.727 2.209 14.458 3.128 17.875 4.452 16.551.582-.581 5.906-35.128 13.913-90.278 2.608-17.966 9.093-61.997 15.023-102 10.002-67.478 12.73-86.004 14.264-96.855l1.676-11.855-2.965-2.144c-6.208-4.486-10.938-9.351-14.636-15.051-2.106-3.248-3.83-6.285-3.83-6.75 0-.465 1.505-.845 3.345-.845 5.875 0 7.133-2.559 7.3-14.853l.144-10.647 6.356-4.373 6.355-4.373 12 .577c13.149.633 21.789 2.54 28.108 6.205 5.382 3.12 7.392 6.365 7.392 11.929 0 5.805-2.485 8.539-7.75 8.525-3.862-.01-13.375-3.888-16.52-6.735-1.224-1.107-2.099-1.286-2.812-.573-1.281 1.281 7.852 10.52 16.705 16.9 8.984 6.474 16.534 9.625 24.416 10.189 5.966.427 7.302.168 11.803-2.281 13.904-7.568 13.522-18.92-1.181-35.081l-5.541-6.091 5.129.81c5.182.82 14.809-.139 22.251-2.215 8.999-2.511 36.547-18.927 36.485-21.743-.034-1.555-12.279-9.557-22.485-14.693-13.522-6.805-25.343-9.987-33.811-9.102l-5.911.618 6.096-6.517c3.353-3.584 6.806-7.891 7.675-9.57 2.405-4.652 2.072-10.17-.923-15.281-7.313-12.479-22.487-12.261-42.286.608-9.609 6.245-19.649 14.858-18.573 15.934.52.52 3.868-.377 8.057-2.16 7.837-3.335 15.04-4.195 17.567-2.097 1.027.852 1.609 2.907 1.609 5.678 0 5.153-3.898 10.299-10.261 13.545-4.464 2.277-15.478 4.838-20.739 4.821-3.163-.01-3.817-.534-6.786-5.441-7.364-12.17-20.016-22.753-33.042-27.639l-6.327-2.374.336-14c.31-12.907.553-14.442 3.107-19.661 3.009-6.145 9.167-12.413 13.187-13.422 6.033-1.514 9.421 1.414 12.642 10.929.95 2.806 2.156 5.245 2.679 5.419 1.611.537 7.399-4.987 8.84-8.436 2.024-4.844 1.699-15.382-.697-22.611-4.131-12.461-12.811-27.395-25.993-44.718C202.433 25.185 180.861.897 179.284 1.102c-.431.056-2.625 2.193-4.874 4.75m-1.91 140.293c-24.173 2.769-49.167 26.175-54.571 51.103-1.911 8.812-.243 13.314 5.887 15.894 18.028 7.587 27.577 13.266 42.934 25.533 5.088 4.064 9.25 6.979 9.25 6.479s-.648-1.447-1.441-2.105c-.792-.657-1.179-1.875-.86-2.706.413-1.077.787-1.175 1.301-.343.407.659.76-.066.809-1.666.049-1.559.386-6.886.75-11.838.714-9.712-1.514-43.539-4.212-63.943l-1.58-11.946 2.228-1.804c3.014-2.441 11.966-2.473 14.92-.053l2.137 1.75-1.964 13c-2.372 15.705-4.013 34.123-5.026 56.393-.631 13.892-.78 14.972-.907 6.607-.259-16.961 3.708-61.694 6.486-73.137 1.171-4.821-11.226-7.689-15.037-3.478-1.586 1.753-1.6 2.676-.192 13.25.833 6.251 1.771 14.965 2.086 19.365.314 4.4.845 10.25 1.178 13 .334 2.75.881 15.35 1.215 28 .586 22.13.685 23 2.609 23 1.719 0 2-.667 2-4.752 0-2.613.45-4.785 1-4.826.55-.041 1.822-.231 2.827-.421 1.326-.252 1.66.091 1.216 1.247-.336.876 3.229-2.094 7.923-6.6 9.846-9.453 21.512-17.37 35.033-23.774 10.221-4.842 12.242-7.35 9.487-11.775-1.187-1.905-1.154-1.972.353-.727 2.174 1.797 2.125 6.407-.089 8.37-.963.854-4.816 2.934-8.563 4.621-15.547 7.002-32.256 19.176-41.67 30.36-9.23 10.966-8.053 10.516 12.483-4.766 15.36-11.429 24.433-17.133 31.196-19.608 8.073-2.956 10.304-5.607 10.304-12.248 0-16.336-15.303-38.821-32.545-47.818-12.278-6.408-26.08-9.114-38.955-7.638m-19.845 7.684c-2.437 2.692-2.109 4.33 2.795 13.967 8.277 16.265 15.097 36.201 18.543 54.204 1 5.225 1.861 8.285 1.913 6.799.333-9.561-8.892-39.279-18.54-59.722-2.965-6.282-5.151-12.18-4.857-13.107.294-.926 1.538-2.168 2.763-2.759 1.557-.752 1.748-1.096.633-1.143-.877-.038-2.34.755-3.25 1.761m54.122-.272c2.303 1.612 3.045 6.206 1.291 7.993-1.359 1.385-10.36 24.385-13.907 35.539-5.074 15.952-9.337 34.076-8.654 36.795.453 1.803.859 2.142 1.441 1.201.638-1.033.899-1.045 1.229-.054.231.692 2.335-1.914 4.677-5.789 8.075-13.364 20.167-26.527 36.498-39.728 5.463-4.416 7.18-7.652 5.613-10.579-.569-1.064-1.48-1.935-2.023-1.935-.544 0-.332 1.012.469 2.25 2.052 3.168.65 5.24-8.527 12.593-10.797 8.653-22.836 21.718-30.094 32.661-3.426 5.164-6.414 9.205-6.64 8.979-.606-.606 3.563-10.726 8.6-20.876 5.733-11.552 13.582-24.189 21.174-34.091 3.342-4.358 6.076-8.536 6.076-9.286 0-2.068-1.928-5.23-3.19-5.23-.616 0-.335.868.625 1.928 2.198 2.429 1.504 4.758-3.039 10.196-9.617 11.512-22.978 34.737-29.461 51.213-1.55 3.94-2.844 6.349-2.877 5.355-.208-6.439 13.28-49.895 20.004-64.447 2.166-4.689 3.938-9.555 3.938-10.813 0-2.429-2.374-5.432-4.294-5.432-.633 0-.151.701 1.071 1.557M139.2 165.2c-2.287 2.287-1.271 6.25 2.894 11.291 10.79 13.057 23.514 35.215 29.973 52.193 1.635 4.299 2.698 6.331 2.362 4.516-2.092-11.314-16.245-37.646-29.336-54.582-6.275-8.118-7.436-11.736-4.343-13.538.963-.561 1.278-1.033.7-1.05-.577-.016-1.59.51-2.25 1.17m-12 13c-2.685 2.685-.883 5.437 12.575 19.206 16.727 17.114 33.672 38.48 31.912 40.24-.333.333-3.492-2.038-7.02-5.27-7.956-7.288-19.638-15.744-31.843-23.048-13.641-8.164-14.767-9.524-11.169-13.499 1.023-1.131 1.206-1.829.479-1.829-.647 0-1.689 1.125-2.316 2.5-1.797 3.945.234 6.8 7.851 11.035 14.221 7.907 30.742 19.839 40.636 29.347 2.692 2.587 4.486 3.776 4.08 2.704-.506-1.335-.371-1.695.445-1.191 2.059 1.273 1.276-.467-3.268-7.261-7.545-11.278-17.534-23.113-30.308-35.909-11.885-11.906-13.574-14.505-11.054-17.025.66-.66.975-1.2.7-1.2s-1.04.54-1.7 1.2m21.8 59.109c0 14.17.474 14.459 14.89 9.082l7.389-2.757-2.889-2.361C160.833 235.096 151.04 228 150.075 228c-.69 0-1.075 3.339-1.075 9.309m52.216-1.533c-9.474 7.106-10.105 7.785-8 8.614 1.256.494 5.136 2.179 8.621 3.743 7.156 3.211 9.714 2.756 10.735-1.912.327-1.496.789-3.338 1.027-4.093.581-1.847-.715-14.136-1.487-14.097-.337.017-5.24 3.502-10.896 7.745" fill="#c8102e" fill-rule="evenodd"/></svg>